<svg width="550" height="209" viewBox="0 0 550 209" fill="none" xmlns="http://www.w3.org/2000/svg">
<g clip-path="url(#clip0_12_15)">
<path d="M181 119.019C181 114.187 181 109.517 181 104.847C181.038 88.9482 180.852 73.0495 181.186 57.1459C181.51 41.8816 187.448 28.7876 198.114 17.845C221.651 -6.26787 260.763 -5.90534 283.829 18.675C304.374 40.5698 305.856 73.5742 286.908 96.9048C275.613 110.824 260.62 118.47 242.678 118.938C222.59 119.458 202.479 119.091 182.382 119.105C182.068 119.129 181.753 119.081 181 119.019ZM238.822 28.9021C232.312 35.2034 225.921 41.0516 219.926 47.2861C210.5 57.0839 210.481 71.6805 219.569 81.7835C228.752 92.0011 244.131 92.9694 254.978 84.016C264.89 75.84 267.049 60.0032 258.79 49.8954C252.657 42.3634 245.399 35.7377 238.822 28.9021Z" fill="#0870BC"/>
<path d="M248.816 125.158C254.334 123.656 259.643 122.606 264.652 120.736C269.661 118.866 274.231 116.214 279.335 113.738L301 143.971H287.575C280.026 143.971 272.477 143.919 264.929 144C264.231 144.052 263.533 143.912 262.91 143.594C262.287 143.276 261.764 142.793 261.397 142.197C257.251 136.478 253.019 130.835 248.816 125.158Z" fill="#0870BC"/>
<path d="M219.664 125.177V143.833H216.037C205.324 143.833 194.616 143.771 183.902 143.857C181.901 143.857 181.338 143.256 181.381 141.295C181.505 135.991 181.424 130.687 181.424 125.177H219.664Z" fill="#0870BC"/>
<path d="M238.822 28.9022C245.399 35.7377 252.643 42.3634 258.8 49.8906C267.049 59.9985 264.89 75.8352 254.987 84.0112C244.141 92.9647 228.776 91.9964 219.578 81.7788C210.49 71.6757 210.523 57.0792 219.936 47.2814C225.921 41.0516 232.312 35.2035 238.822 28.9022ZM252.209 50.1434C252.776 53.9595 253.562 57.7756 253.872 61.6251C254.601 70.7312 252.38 76.9658 243.998 81.5069L239.866 83.7489C247.882 84.2259 254.882 79.7706 257.122 72.9446C259.901 64.4919 257.18 57.0792 252.209 50.1434Z" fill="white"/>
<path d="M252.209 50.1434C257.179 57.0792 259.901 64.4919 257.122 72.9445C254.882 79.7706 247.882 84.2115 239.866 83.7488L243.998 81.5069C252.38 76.9657 254.601 70.7312 253.872 61.6251C253.562 57.7756 252.776 53.9691 252.209 50.1434Z" fill="#0870BC"/>
</g>
<path d="M2.27557 200V173.818H12.6051C14.5824 173.818 16.2699 174.172 17.6676 174.879C19.0739 175.578 20.1435 176.571 20.8764 177.858C21.6179 179.136 21.9886 180.641 21.9886 182.371C21.9886 184.109 21.6136 185.605 20.8636 186.858C20.1136 188.102 19.027 189.057 17.6037 189.722C16.1889 190.386 14.4759 190.719 12.4645 190.719H5.5483V186.27H11.5696C12.6264 186.27 13.5043 186.125 14.2031 185.835C14.902 185.545 15.4219 185.111 15.7628 184.531C16.1122 183.952 16.2869 183.232 16.2869 182.371C16.2869 181.501 16.1122 180.768 15.7628 180.172C15.4219 179.575 14.8977 179.124 14.1903 178.817C13.4915 178.501 12.6094 178.344 11.544 178.344H7.81108V200H2.27557ZM16.4148 188.085L22.9219 200H16.8111L10.4446 188.085H16.4148ZM34.4308 200.384C32.4109 200.384 30.6722 199.974 29.2148 199.156C27.766 198.33 26.6495 197.162 25.8654 195.653C25.0813 194.136 24.6893 192.342 24.6893 190.271C24.6893 188.251 25.0813 186.479 25.8654 184.953C26.6495 183.428 27.7532 182.239 29.1765 181.386C30.6083 180.534 32.2873 180.108 34.2134 180.108C35.5089 180.108 36.7148 180.317 37.8313 180.734C38.9563 181.143 39.9364 181.761 40.7717 182.588C41.6154 183.415 42.2717 184.455 42.7404 185.707C43.2092 186.952 43.4435 188.409 43.4435 190.08V191.575H26.8626V188.2H38.3171C38.3171 187.416 38.1467 186.722 37.8058 186.116C37.4648 185.511 36.9918 185.038 36.3867 184.697C35.7901 184.348 35.0955 184.173 34.3029 184.173C33.4762 184.173 32.7433 184.365 32.104 184.749C31.4734 185.124 30.979 185.631 30.6211 186.27C30.2631 186.901 30.0799 187.604 30.0714 188.379V191.588C30.0714 192.56 30.2504 193.399 30.6083 194.107C30.9748 194.814 31.4904 195.359 32.1552 195.743C32.82 196.126 33.6083 196.318 34.5202 196.318C35.1254 196.318 35.6793 196.233 36.1822 196.062C36.685 195.892 37.1154 195.636 37.4734 195.295C37.8313 194.955 38.104 194.537 38.2915 194.043L43.3285 194.375C43.0728 195.585 42.5487 196.642 41.756 197.545C40.9719 198.44 39.9577 199.139 38.7134 199.642C37.4776 200.136 36.0501 200.384 34.4308 200.384ZM52.4435 173.818V200H46.9975V173.818H52.4435ZM56.8061 200V180.364H62.2521V200H56.8061ZM59.5419 177.832C58.7322 177.832 58.0376 177.564 57.4581 177.027C56.8871 176.482 56.6016 175.83 56.6016 175.071C56.6016 174.321 56.8871 173.678 57.4581 173.141C58.0376 172.595 58.7322 172.322 59.5419 172.322C60.3516 172.322 61.0419 172.595 61.6129 173.141C62.1925 173.678 62.4822 174.321 62.4822 175.071C62.4822 175.83 62.1925 176.482 61.6129 177.027C61.0419 177.564 60.3516 177.832 59.5419 177.832ZM72.2141 200.371C70.9613 200.371 69.8448 200.153 68.8647 199.719C67.8846 199.276 67.109 198.624 66.538 197.763C65.9755 196.893 65.6942 195.811 65.6942 194.516C65.6942 193.425 65.8945 192.509 66.2951 191.767C66.6957 191.026 67.2411 190.429 67.9315 189.977C68.6218 189.526 69.4059 189.185 70.2837 188.955C71.1701 188.724 72.0991 188.562 73.0707 188.469C74.2127 188.349 75.1332 188.239 75.832 188.136C76.5309 188.026 77.038 187.864 77.3533 187.651C77.6687 187.437 77.8264 187.122 77.8264 186.705V186.628C77.8264 185.818 77.5707 185.192 77.0593 184.749C76.5565 184.305 75.8406 184.084 74.9116 184.084C73.9315 184.084 73.1516 184.301 72.5721 184.736C71.9925 185.162 71.609 185.699 71.4215 186.347L66.3846 185.938C66.6403 184.744 67.1431 183.713 67.8931 182.844C68.6431 181.966 69.6104 181.293 70.7951 180.824C71.9883 180.347 73.369 180.108 74.9371 180.108C76.0281 180.108 77.0721 180.236 78.0692 180.491C79.0749 180.747 79.9656 181.143 80.7411 181.68C81.5252 182.217 82.1431 182.908 82.5948 183.751C83.0465 184.587 83.2724 185.588 83.2724 186.756V200H78.1076V197.277H77.9542C77.6388 197.891 77.217 198.432 76.6886 198.901C76.1602 199.361 75.5252 199.723 74.7837 199.987C74.0423 200.243 73.1857 200.371 72.2141 200.371ZM73.7738 196.612C74.5749 196.612 75.2823 196.455 75.896 196.139C76.5096 195.815 76.9911 195.381 77.3406 194.835C77.69 194.29 77.8647 193.672 77.8647 192.982V190.898C77.6942 191.009 77.4599 191.111 77.1616 191.205C76.8718 191.29 76.5437 191.371 76.1772 191.447C75.8107 191.516 75.4442 191.58 75.0778 191.639C74.7113 191.69 74.3789 191.737 74.0806 191.78C73.4414 191.874 72.8832 192.023 72.4059 192.227C71.9286 192.432 71.5579 192.709 71.2937 193.058C71.0295 193.399 70.8974 193.825 70.8974 194.337C70.8974 195.078 71.1658 195.645 71.7028 196.037C72.2482 196.42 72.9386 196.612 73.7738 196.612ZM92.9435 188.648V200H87.4975V180.364H92.6879V183.828H92.918C93.3526 182.686 94.0813 181.783 95.104 181.118C96.1268 180.445 97.3668 180.108 98.8242 180.108C100.188 180.108 101.377 180.406 102.391 181.003C103.405 181.599 104.194 182.452 104.756 183.56C105.319 184.659 105.6 185.972 105.6 187.497V200H100.154V188.469C100.162 187.267 99.8555 186.33 99.2333 185.656C98.6112 184.974 97.7546 184.634 96.6637 184.634C95.9308 184.634 95.283 184.791 94.7205 185.107C94.1665 185.422 93.7319 185.882 93.4165 186.487C93.1097 187.084 92.9521 187.804 92.9435 188.648ZM118.764 200.384C116.753 200.384 115.023 199.957 113.574 199.105C112.134 198.244 111.026 197.051 110.25 195.526C109.483 194 109.099 192.244 109.099 190.259C109.099 188.247 109.487 186.483 110.263 184.966C111.047 183.44 112.159 182.251 113.599 181.399C115.04 180.538 116.753 180.108 118.739 180.108C120.452 180.108 121.952 180.419 123.239 181.041C124.526 181.663 125.544 182.537 126.294 183.662C127.044 184.787 127.457 186.108 127.534 187.625H122.395C122.25 186.645 121.866 185.857 121.244 185.26C120.631 184.655 119.825 184.352 118.828 184.352C117.984 184.352 117.247 184.582 116.616 185.043C115.994 185.494 115.509 186.155 115.159 187.024C114.81 187.893 114.635 188.946 114.635 190.182C114.635 191.435 114.805 192.5 115.146 193.378C115.496 194.256 115.986 194.925 116.616 195.385C117.247 195.845 117.984 196.075 118.828 196.075C119.45 196.075 120.009 195.947 120.503 195.692C121.006 195.436 121.419 195.065 121.743 194.58C122.075 194.085 122.293 193.493 122.395 192.803H127.534C127.449 194.303 127.04 195.624 126.307 196.766C125.582 197.899 124.581 198.786 123.303 199.425C122.024 200.064 120.511 200.384 118.764 200.384ZM139.97 200.384C137.95 200.384 136.211 199.974 134.754 199.156C133.305 198.33 132.189 197.162 131.404 195.653C130.62 194.136 130.228 192.342 130.228 190.271C130.228 188.251 130.62 186.479 131.404 184.953C132.189 183.428 133.292 182.239 134.716 181.386C136.147 180.534 137.826 180.108 139.752 180.108C141.048 180.108 142.254 180.317 143.37 180.734C144.495 181.143 145.475 181.761 146.311 182.588C147.154 183.415 147.811 184.455 148.279 185.707C148.748 186.952 148.983 188.409 148.983 190.08V191.575H132.402V188.2H143.856C143.856 187.416 143.686 186.722 143.345 186.116C143.004 185.511 142.531 185.038 141.926 184.697C141.329 184.348 140.635 184.173 139.842 184.173C139.015 184.173 138.282 184.365 137.643 184.749C137.012 185.124 136.518 185.631 136.16 186.27C135.802 186.901 135.619 187.604 135.61 188.379V191.588C135.61 192.56 135.789 193.399 136.147 194.107C136.514 194.814 137.029 195.359 137.694 195.743C138.359 196.126 139.147 196.318 140.059 196.318C140.664 196.318 141.218 196.233 141.721 196.062C142.224 195.892 142.654 195.636 143.012 195.295C143.37 194.955 143.643 194.537 143.831 194.043L148.868 194.375C148.612 195.585 148.088 196.642 147.295 197.545C146.511 198.44 145.497 199.139 144.252 199.642C143.017 200.136 141.589 200.384 139.97 200.384ZM160.971 200V173.818H171.3C173.286 173.818 174.978 174.197 176.376 174.956C177.773 175.706 178.839 176.75 179.572 178.088C180.313 179.418 180.684 180.952 180.684 182.69C180.684 184.429 180.309 185.963 179.559 187.293C178.809 188.622 177.722 189.658 176.299 190.399C174.884 191.141 173.171 191.511 171.16 191.511H164.576V187.075H170.265C171.33 187.075 172.208 186.892 172.898 186.526C173.597 186.151 174.117 185.635 174.458 184.979C174.808 184.314 174.982 183.551 174.982 182.69C174.982 181.821 174.808 181.062 174.458 180.415C174.117 179.759 173.597 179.251 172.898 178.893C172.2 178.527 171.313 178.344 170.239 178.344H166.506V200H160.971ZM184.177 200V180.364H189.457V183.79H189.662C190.02 182.571 190.62 181.651 191.464 181.028C192.308 180.398 193.279 180.082 194.379 180.082C194.652 180.082 194.946 180.099 195.261 180.134C195.576 180.168 195.853 180.214 196.092 180.274V185.107C195.836 185.03 195.483 184.962 195.031 184.902C194.579 184.842 194.166 184.812 193.791 184.812C192.99 184.812 192.274 184.987 191.643 185.337C191.021 185.678 190.527 186.155 190.16 186.768C189.802 187.382 189.623 188.089 189.623 188.891V200H184.177ZM206.866 200.384C204.88 200.384 203.163 199.962 201.714 199.118C200.273 198.266 199.161 197.081 198.377 195.564C197.593 194.038 197.201 192.27 197.201 190.259C197.201 188.23 197.593 186.457 198.377 184.94C199.161 183.415 200.273 182.23 201.714 181.386C203.163 180.534 204.88 180.108 206.866 180.108C208.852 180.108 210.565 180.534 212.005 181.386C213.454 182.23 214.57 183.415 215.354 184.94C216.138 186.457 216.531 188.23 216.531 190.259C216.531 192.27 216.138 194.038 215.354 195.564C214.57 197.081 213.454 198.266 212.005 199.118C210.565 199.962 208.852 200.384 206.866 200.384ZM206.891 196.165C207.795 196.165 208.549 195.909 209.154 195.398C209.759 194.878 210.215 194.17 210.522 193.276C210.837 192.381 210.995 191.362 210.995 190.22C210.995 189.078 210.837 188.06 210.522 187.165C210.215 186.27 209.759 185.562 209.154 185.043C208.549 184.523 207.795 184.263 206.891 184.263C205.979 184.263 205.212 184.523 204.59 185.043C203.977 185.562 203.512 186.27 203.197 187.165C202.89 188.06 202.737 189.078 202.737 190.22C202.737 191.362 202.89 192.381 203.197 193.276C203.512 194.17 203.977 194.878 204.59 195.398C205.212 195.909 205.979 196.165 206.891 196.165ZM220.072 180.364H225.518V200.972C225.518 202.489 225.219 203.716 224.623 204.653C224.026 205.591 223.17 206.277 222.053 206.712C220.945 207.146 219.62 207.364 218.077 207.364C217.89 207.364 217.711 207.359 217.54 207.351C217.362 207.351 217.174 207.347 216.978 207.338V203.081C217.123 203.089 217.251 203.094 217.362 203.094C217.464 203.102 217.575 203.107 217.694 203.107C218.572 203.107 219.185 202.919 219.535 202.544C219.893 202.178 220.072 201.624 220.072 200.882V180.364ZM222.782 177.832C221.981 177.832 221.29 177.564 220.711 177.027C220.131 176.482 219.842 175.83 219.842 175.071C219.842 174.321 220.131 173.678 220.711 173.141C221.29 172.595 221.981 172.322 222.782 172.322C223.6 172.322 224.295 172.595 224.866 173.141C225.445 173.678 225.735 174.321 225.735 175.071C225.735 175.83 225.445 176.482 224.866 177.027C224.295 177.564 223.6 177.832 222.782 177.832ZM238.829 200.384C236.809 200.384 235.071 199.974 233.613 199.156C232.164 198.33 231.048 197.162 230.264 195.653C229.48 194.136 229.088 192.342 229.088 190.271C229.088 188.251 229.48 186.479 230.264 184.953C231.048 183.428 232.152 182.239 233.575 181.386C235.007 180.534 236.686 180.108 238.612 180.108C239.907 180.108 241.113 180.317 242.23 180.734C243.355 181.143 244.335 181.761 245.17 182.588C246.014 183.415 246.67 184.455 247.139 185.707C247.608 186.952 247.842 188.409 247.842 190.08V191.575H231.261V188.2H242.716C242.716 187.416 242.545 186.722 242.204 186.116C241.863 185.511 241.39 185.038 240.785 184.697C240.189 184.348 239.494 184.173 238.701 184.173C237.875 184.173 237.142 184.365 236.502 184.749C235.872 185.124 235.377 185.631 235.02 186.27C234.662 186.901 234.478 187.604 234.47 188.379V191.588C234.47 192.56 234.649 193.399 235.007 194.107C235.373 194.814 235.889 195.359 236.554 195.743C237.218 196.126 238.007 196.318 238.919 196.318C239.524 196.318 240.078 196.233 240.581 196.062C241.083 195.892 241.514 195.636 241.872 195.295C242.23 194.955 242.502 194.537 242.69 194.043L247.727 194.375C247.471 195.585 246.947 196.642 246.154 197.545C245.37 198.44 244.356 199.139 243.112 199.642C241.876 200.136 240.449 200.384 238.829 200.384ZM260.268 200.384C258.257 200.384 256.527 199.957 255.078 199.105C253.637 198.244 252.529 197.051 251.754 195.526C250.987 194 250.603 192.244 250.603 190.259C250.603 188.247 250.991 186.483 251.767 184.966C252.551 183.44 253.663 182.251 255.103 181.399C256.544 180.538 258.257 180.108 260.243 180.108C261.956 180.108 263.456 180.419 264.743 181.041C266.029 181.663 267.048 182.537 267.798 183.662C268.548 184.787 268.961 186.108 269.038 187.625H263.899C263.754 186.645 263.37 185.857 262.748 185.26C262.135 184.655 261.329 184.352 260.332 184.352C259.488 184.352 258.751 184.582 258.12 185.043C257.498 185.494 257.012 186.155 256.663 187.024C256.314 187.893 256.139 188.946 256.139 190.182C256.139 191.435 256.309 192.5 256.65 193.378C257 194.256 257.49 194.925 258.12 195.385C258.751 195.845 259.488 196.075 260.332 196.075C260.954 196.075 261.512 195.947 262.007 195.692C262.51 195.436 262.923 195.065 263.247 194.58C263.579 194.085 263.797 193.493 263.899 192.803H269.038C268.953 194.303 268.544 195.624 267.811 196.766C267.086 197.899 266.085 198.786 264.806 199.425C263.528 200.064 262.015 200.384 260.268 200.384ZM282.969 180.364V184.455H271.144V180.364H282.969ZM273.829 175.659H279.275V193.966C279.275 194.469 279.352 194.861 279.505 195.142C279.658 195.415 279.871 195.607 280.144 195.717C280.425 195.828 280.749 195.884 281.116 195.884C281.371 195.884 281.627 195.862 281.883 195.82C282.138 195.768 282.335 195.73 282.471 195.705L283.327 199.757C283.055 199.842 282.671 199.94 282.177 200.051C281.683 200.17 281.082 200.243 280.374 200.268C279.062 200.32 277.911 200.145 276.923 199.744C275.942 199.344 275.18 198.722 274.634 197.878C274.089 197.034 273.82 195.969 273.829 194.682V175.659ZM302.609 185.963L297.623 186.27C297.538 185.844 297.355 185.46 297.074 185.119C296.792 184.77 296.422 184.493 295.961 184.288C295.51 184.075 294.968 183.969 294.338 183.969C293.494 183.969 292.782 184.148 292.203 184.506C291.623 184.855 291.333 185.324 291.333 185.912C291.333 186.381 291.521 186.777 291.896 187.101C292.271 187.425 292.914 187.685 293.826 187.881L297.38 188.597C299.289 188.989 300.713 189.619 301.65 190.489C302.588 191.358 303.056 192.5 303.056 193.915C303.056 195.202 302.677 196.331 301.919 197.303C301.169 198.274 300.137 199.033 298.825 199.578C297.521 200.115 296.017 200.384 294.312 200.384C291.713 200.384 289.642 199.842 288.099 198.76C286.565 197.669 285.666 196.186 285.402 194.311L290.758 194.03C290.92 194.822 291.312 195.428 291.934 195.845C292.556 196.254 293.353 196.459 294.325 196.459C295.279 196.459 296.047 196.276 296.626 195.909C297.214 195.534 297.512 195.053 297.521 194.464C297.512 193.97 297.304 193.565 296.895 193.25C296.485 192.926 295.855 192.679 295.002 192.509L291.602 191.831C289.684 191.447 288.257 190.783 287.319 189.837C286.39 188.891 285.926 187.685 285.926 186.219C285.926 184.957 286.267 183.871 286.949 182.959C287.639 182.047 288.606 181.344 289.85 180.849C291.103 180.355 292.569 180.108 294.248 180.108C296.728 180.108 298.68 180.632 300.103 181.68C301.535 182.729 302.37 184.156 302.609 185.963ZM313.923 178.382V173.818H335.426V178.382H327.41V200H321.939V178.382H313.923ZM344.966 200.384C342.946 200.384 341.207 199.974 339.75 199.156C338.301 198.33 337.185 197.162 336.401 195.653C335.616 194.136 335.224 192.342 335.224 190.271C335.224 188.251 335.616 186.479 336.401 184.953C337.185 183.428 338.288 182.239 339.712 181.386C341.143 180.534 342.822 180.108 344.749 180.108C346.044 180.108 347.25 180.317 348.366 180.734C349.491 181.143 350.472 181.761 351.307 182.588C352.151 183.415 352.807 184.455 353.276 185.707C353.744 186.952 353.979 188.409 353.979 190.08V191.575H337.398V188.2H348.852C348.852 187.416 348.682 186.722 348.341 186.116C348 185.511 347.527 185.038 346.922 184.697C346.325 184.348 345.631 184.173 344.838 184.173C344.011 184.173 343.278 184.365 342.639 184.749C342.009 185.124 341.514 185.631 341.156 186.27C340.798 186.901 340.615 187.604 340.607 188.379V191.588C340.607 192.56 340.786 193.399 341.143 194.107C341.51 194.814 342.026 195.359 342.69 195.743C343.355 196.126 344.143 196.318 345.055 196.318C345.661 196.318 346.214 196.233 346.717 196.062C347.22 195.892 347.651 195.636 348.009 195.295C348.366 194.955 348.639 194.537 348.827 194.043L353.864 194.375C353.608 195.585 353.084 196.642 352.291 197.545C351.507 198.44 350.493 199.139 349.249 199.642C348.013 200.136 346.585 200.384 344.966 200.384ZM366.405 200.384C364.393 200.384 362.663 199.957 361.214 199.105C359.774 198.244 358.666 197.051 357.891 195.526C357.124 194 356.74 192.244 356.74 190.259C356.74 188.247 357.128 186.483 357.903 184.966C358.688 183.44 359.8 182.251 361.24 181.399C362.68 180.538 364.393 180.108 366.379 180.108C368.092 180.108 369.592 180.419 370.879 181.041C372.166 181.663 373.185 182.537 373.935 183.662C374.685 184.787 375.098 186.108 375.175 187.625H370.036C369.891 186.645 369.507 185.857 368.885 185.26C368.271 184.655 367.466 184.352 366.469 184.352C365.625 184.352 364.888 184.582 364.257 185.043C363.635 185.494 363.149 186.155 362.8 187.024C362.45 187.893 362.276 188.946 362.276 190.182C362.276 191.435 362.446 192.5 362.787 193.378C363.136 194.256 363.626 194.925 364.257 195.385C364.888 195.845 365.625 196.075 366.469 196.075C367.091 196.075 367.649 195.947 368.143 195.692C368.646 195.436 369.06 195.065 369.384 194.58C369.716 194.085 369.933 193.493 370.036 192.803H375.175C375.089 194.303 374.68 195.624 373.947 196.766C373.223 197.899 372.222 198.786 370.943 199.425C369.665 200.064 368.152 200.384 366.405 200.384ZM384.108 188.648V200H378.662V173.818H383.954V183.828H384.184C384.627 182.669 385.343 181.761 386.332 181.105C387.321 180.44 388.561 180.108 390.052 180.108C391.416 180.108 392.605 180.406 393.619 181.003C394.642 181.591 395.434 182.439 395.997 183.547C396.568 184.646 396.849 185.963 396.841 187.497V200H391.395V188.469C391.403 187.259 391.096 186.317 390.474 185.643C389.86 184.97 389 184.634 387.892 184.634C387.15 184.634 386.494 184.791 385.923 185.107C385.36 185.422 384.917 185.882 384.593 186.487C384.278 187.084 384.116 187.804 384.108 188.648ZM406.572 188.648V200H401.126V180.364H406.317V183.828H406.547C406.982 182.686 407.71 181.783 408.733 181.118C409.756 180.445 410.996 180.108 412.453 180.108C413.817 180.108 415.006 180.406 416.02 181.003C417.034 181.599 417.822 182.452 418.385 183.56C418.947 184.659 419.229 185.972 419.229 187.497V200H413.783V188.469C413.791 187.267 413.484 186.33 412.862 185.656C412.24 184.974 411.384 184.634 410.293 184.634C409.56 184.634 408.912 184.791 408.349 185.107C407.795 185.422 407.361 185.882 407.045 186.487C406.739 187.084 406.581 187.804 406.572 188.648ZM432.393 200.384C430.407 200.384 428.69 199.962 427.241 199.118C425.801 198.266 424.689 197.081 423.904 195.564C423.12 194.038 422.728 192.27 422.728 190.259C422.728 188.23 423.12 186.457 423.904 184.94C424.689 183.415 425.801 182.23 427.241 181.386C428.69 180.534 430.407 180.108 432.393 180.108C434.379 180.108 436.092 180.534 437.532 181.386C438.981 182.23 440.098 183.415 440.882 184.94C441.666 186.457 442.058 188.23 442.058 190.259C442.058 192.27 441.666 194.038 440.882 195.564C440.098 197.081 438.981 198.266 437.532 199.118C436.092 199.962 434.379 200.384 432.393 200.384ZM432.419 196.165C433.322 196.165 434.076 195.909 434.681 195.398C435.287 194.878 435.743 194.17 436.049 193.276C436.365 192.381 436.522 191.362 436.522 190.22C436.522 189.078 436.365 188.06 436.049 187.165C435.743 186.27 435.287 185.562 434.681 185.043C434.076 184.523 433.322 184.263 432.419 184.263C431.507 184.263 430.74 184.523 430.118 185.043C429.504 185.562 429.039 186.27 428.724 187.165C428.417 188.06 428.264 189.078 428.264 190.22C428.264 191.362 428.417 192.381 428.724 193.276C429.039 194.17 429.504 194.878 430.118 195.398C430.74 195.909 431.507 196.165 432.419 196.165ZM451.045 173.818V200H445.599V173.818H451.045ZM464.28 200.384C462.294 200.384 460.577 199.962 459.128 199.118C457.688 198.266 456.575 197.081 455.791 195.564C455.007 194.038 454.615 192.27 454.615 190.259C454.615 188.23 455.007 186.457 455.791 184.94C456.575 183.415 457.688 182.23 459.128 181.386C460.577 180.534 462.294 180.108 464.28 180.108C466.266 180.108 467.979 180.534 469.419 181.386C470.868 182.23 471.984 183.415 472.768 184.94C473.553 186.457 473.945 188.23 473.945 190.259C473.945 192.27 473.553 194.038 472.768 195.564C471.984 197.081 470.868 198.266 469.419 199.118C467.979 199.962 466.266 200.384 464.28 200.384ZM464.305 196.165C465.209 196.165 465.963 195.909 466.568 195.398C467.173 194.878 467.629 194.17 467.936 193.276C468.251 192.381 468.409 191.362 468.409 190.22C468.409 189.078 468.251 188.06 467.936 187.165C467.629 186.27 467.173 185.562 466.568 185.043C465.963 184.523 465.209 184.263 464.305 184.263C463.393 184.263 462.626 184.523 462.004 185.043C461.391 185.562 460.926 186.27 460.611 187.165C460.304 188.06 460.151 189.078 460.151 190.22C460.151 191.362 460.304 192.381 460.611 193.276C460.926 194.17 461.391 194.878 462.004 195.398C462.626 195.909 463.393 196.165 464.305 196.165ZM486.332 207.773C484.568 207.773 483.055 207.53 481.794 207.044C480.541 206.567 479.544 205.915 478.803 205.088C478.061 204.261 477.58 203.332 477.358 202.301L482.395 201.624C482.548 202.016 482.791 202.382 483.124 202.723C483.456 203.064 483.895 203.337 484.44 203.541C484.994 203.754 485.668 203.861 486.46 203.861C487.645 203.861 488.621 203.571 489.388 202.991C490.163 202.42 490.551 201.462 490.551 200.115V196.523H490.321C490.082 197.068 489.724 197.584 489.247 198.07C488.77 198.555 488.156 198.952 487.406 199.259C486.656 199.565 485.761 199.719 484.722 199.719C483.247 199.719 481.905 199.378 480.695 198.696C479.493 198.006 478.534 196.953 477.818 195.538C477.111 194.115 476.757 192.317 476.757 190.143C476.757 187.919 477.119 186.061 477.844 184.57C478.568 183.078 479.531 181.962 480.733 181.22C481.943 180.479 483.268 180.108 484.709 180.108C485.808 180.108 486.729 180.295 487.47 180.67C488.212 181.037 488.808 181.497 489.26 182.051C489.72 182.597 490.074 183.134 490.321 183.662H490.526V180.364H495.933V200.192C495.933 201.862 495.524 203.26 494.706 204.385C493.888 205.51 492.754 206.354 491.305 206.916C489.865 207.487 488.207 207.773 486.332 207.773ZM486.447 195.628C487.325 195.628 488.067 195.411 488.672 194.976C489.286 194.533 489.754 193.902 490.078 193.084C490.411 192.257 490.577 191.268 490.577 190.118C490.577 188.967 490.415 187.97 490.091 187.126C489.767 186.274 489.298 185.614 488.685 185.145C488.071 184.676 487.325 184.442 486.447 184.442C485.553 184.442 484.798 184.685 484.185 185.17C483.571 185.648 483.107 186.312 482.791 187.165C482.476 188.017 482.318 189.001 482.318 190.118C482.318 191.251 482.476 192.232 482.791 193.058C483.115 193.876 483.58 194.511 484.185 194.963C484.798 195.406 485.553 195.628 486.447 195.628ZM500.267 200V180.364H505.713V200H500.267ZM503.003 177.832C502.193 177.832 501.499 177.564 500.919 177.027C500.348 176.482 500.062 175.83 500.062 175.071C500.062 174.321 500.348 173.678 500.919 173.141C501.499 172.595 502.193 172.322 503.003 172.322C503.813 172.322 504.503 172.595 505.074 173.141C505.653 173.678 505.943 174.321 505.943 175.071C505.943 175.83 505.653 176.482 505.074 177.027C504.503 177.564 503.813 177.832 503.003 177.832ZM519.025 200.384C517.005 200.384 515.266 199.974 513.809 199.156C512.36 198.33 511.243 197.162 510.459 195.653C509.675 194.136 509.283 192.342 509.283 190.271C509.283 188.251 509.675 186.479 510.459 184.953C511.243 183.428 512.347 182.239 513.77 181.386C515.202 180.534 516.881 180.108 518.807 180.108C520.103 180.108 521.309 180.317 522.425 180.734C523.55 181.143 524.53 181.761 525.365 182.588C526.209 183.415 526.865 184.455 527.334 185.707C527.803 186.952 528.037 188.409 528.037 190.08V191.575H511.456V188.2H522.911C522.911 187.416 522.74 186.722 522.4 186.116C522.059 185.511 521.586 185.038 520.98 184.697C520.384 184.348 519.689 184.173 518.897 184.173C518.07 184.173 517.337 184.365 516.698 184.749C516.067 185.124 515.573 185.631 515.215 186.27C514.857 186.901 514.674 187.604 514.665 188.379V191.588C514.665 192.56 514.844 193.399 515.202 194.107C515.569 194.814 516.084 195.359 516.749 195.743C517.414 196.126 518.202 196.318 519.114 196.318C519.719 196.318 520.273 196.233 520.776 196.062C521.279 195.892 521.709 195.636 522.067 195.295C522.425 194.955 522.698 194.537 522.885 194.043L527.922 194.375C527.667 195.585 527.142 196.642 526.35 197.545C525.566 198.44 524.551 199.139 523.307 199.642C522.071 200.136 520.644 200.384 519.025 200.384ZM547.929 185.963L542.944 186.27C542.858 185.844 542.675 185.46 542.394 185.119C542.113 184.77 541.742 184.493 541.282 184.288C540.83 184.075 540.289 183.969 539.658 183.969C538.814 183.969 538.103 184.148 537.523 184.506C536.944 184.855 536.654 185.324 536.654 185.912C536.654 186.381 536.841 186.777 537.216 187.101C537.591 187.425 538.235 187.685 539.147 187.881L542.701 188.597C544.61 188.989 546.033 189.619 546.971 190.489C547.908 191.358 548.377 192.5 548.377 193.915C548.377 195.202 547.998 196.331 547.239 197.303C546.489 198.274 545.458 199.033 544.145 199.578C542.841 200.115 541.337 200.384 539.632 200.384C537.033 200.384 534.962 199.842 533.419 198.76C531.885 197.669 530.986 196.186 530.722 194.311L536.078 194.03C536.24 194.822 536.632 195.428 537.255 195.845C537.877 196.254 538.674 196.459 539.645 196.459C540.6 196.459 541.367 196.276 541.946 195.909C542.534 195.534 542.833 195.053 542.841 194.464C542.833 193.97 542.624 193.565 542.215 193.25C541.806 192.926 541.175 192.679 540.323 192.509L536.922 191.831C535.005 191.447 533.577 190.783 532.64 189.837C531.711 188.891 531.246 187.685 531.246 186.219C531.246 184.957 531.587 183.871 532.269 182.959C532.959 182.047 533.926 181.344 535.171 180.849C536.424 180.355 537.89 180.108 539.569 180.108C542.049 180.108 544 180.632 545.424 181.68C546.855 182.729 547.691 184.156 547.929 185.963Z" fill="#464343"/>
<defs>
<clipPath id="clip0_12_15">
<rect width="120" height="144" fill="white" transform="translate(181)"/>
</clipPath>
</defs>
</svg>
